<?xml version="1.0" encoding="UTF-8" standalone="no"?>
<!DOCTYPE svg PUBLIC "-//W3C//DTD SVG 1.1//EN" "http://www.w3.org/Graphics/SVG/1.1/DTD/svg11.dtd">
<svg width="100%" height="100%" viewBox="0 0 42 42" version="1.1" xmlns="http://www.w3.org/2000/svg" xmlns:xlink="http://www.w3.org/1999/xlink" xml:space="preserve" xmlns:serif="http://www.serif.com/" style="fill-rule:evenodd;clip-rule:evenodd;stroke-linejoin:round;stroke-miterlimit:2;">
    <g transform="matrix(1,0,0,1,0,-122)">
        <g id="Przycisk_Szukaj" transform="matrix(0.907362,0,0,0.907362,720.446,54.2092)">
            <rect x="-794" y="74.712" width="46.288" height="46.288" style="fill:none;"/>
            <clipPath id="_clip1">
                <rect x="-794" y="74.712" width="46.288" height="46.288"/>
            </clipPath>
            <g clip-path="url(#_clip1)">
                <g transform="matrix(1.1021,0,0,1.1021,-706.934,-173.26)">
                    <g transform="matrix(0.506364,0,0,0.506364,-2046.87,-441.263)">
                        <path d="M3927.75,1335.5C3939.75,1335.5 3949.5,1345.25 3949.5,1357.25C3949.5,1369.26 3939.75,1379 3927.75,1379C3915.74,1379 3906,1369.26 3906,1357.25C3906,1345.25 3915.74,1335.5 3927.75,1335.5ZM3927.75,1339.5C3917.95,1339.5 3910,1347.46 3910,1357.25C3910,1367.05 3917.95,1375 3927.75,1375C3937.54,1375 3945.5,1367.05 3945.5,1357.25C3945.5,1347.46 3937.54,1339.5 3927.75,1339.5Z" style="fill:#F1BD33;"/>
                    </g>
                    <g transform="matrix(1.01273,0,0,1.01273,-4035.74,-1128.53)">
                        <path d="M3927.75,1336.5C3939.2,1336.5 3948.5,1345.8 3948.5,1357.25C3948.5,1368.7 3939.2,1378 3927.75,1378C3916.3,1378 3907,1368.7 3907,1357.25C3907,1345.8 3916.3,1336.5 3927.75,1336.5ZM3927.75,1338.5C3917.4,1338.5 3909,1346.9 3909,1357.25C3909,1367.6 3917.4,1376 3927.75,1376C3938.1,1376 3946.5,1367.6 3946.5,1357.25C3946.5,1346.9 3938.1,1338.5 3927.75,1338.5Z" style="fill:#F1BD33;"/>
                    </g>
                </g>
            </g>
        </g>
    </g>
</svg>