<?xml version="1.0" encoding="UTF-8" standalone="no"?>
<svg
   width="39.683933"
   height="25.155807"
   viewBox="0 0 39.683933 25.155807"
   version="1.1"
   xml:space="preserve"
   style="clip-rule:evenodd;fill-rule:evenodd;stroke-linejoin:round;stroke-miterlimit:2"
   id="svg5"
   sodipodi:docname="button_menu_mobile.svg"
   inkscape:version="1.3.2 (091e20e, 2023-11-25, custom)"
   xmlns:inkscape="http://www.inkscape.org/namespaces/inkscape"
   xmlns:sodipodi="http://sodipodi.sourceforge.net/DTD/sodipodi-0.dtd"
   xmlns="http://www.w3.org/2000/svg"
   xmlns:svg="http://www.w3.org/2000/svg"><defs
   id="defs5" /><sodipodi:namedview
   id="namedview5"
   pagecolor="#ffffff"
   bordercolor="#000000"
   borderopacity="0.25"
   inkscape:showpageshadow="2"
   inkscape:pageopacity="0.0"
   inkscape:pagecheckerboard="0"
   inkscape:deskcolor="#d1d1d1"
   inkscape:zoom="24.6"
   inkscape:cx="19.837398"
   inkscape:cy="12.581301"
   inkscape:window-width="1920"
   inkscape:window-height="1001"
   inkscape:window-x="-9"
   inkscape:window-y="276"
   inkscape:window-maximized="1"
   inkscape:current-layer="svg5" />
    <g
   transform="translate(-0.15468991,-672.42544)"
   id="g5">
        <g
   id="Przycisk_Menu"
   transform="matrix(0.864155,0,0,0.5617,686.139,630.034)">
            <rect
   x="-794"
   y="74.711998"
   width="46.287998"
   height="46.287998"
   style="fill:none"
   id="rect1" />
            <g
   transform="matrix(1.1572,0,0,1.78031,-1103.95,-1163.54)"
   id="g4">
                <g
   transform="matrix(0,0.581573,-0.183049,0,410.581,-793.573)"
   id="g1">
                    <path
   d="m 2561.2,670.45 c 0,-0.052 0,-0.105 0,-0.157 0,-2.779 0.3,-5.1 0.89,-6.966 0.01,-0.026 0.02,-0.052 0.02,-0.078 0.59,-1.878 1.32,-2.815 2.2,-2.815 0.03,-0.002 0.06,-0.002 0.1,0 0.01,-0.002 0.03,-0.002 0.04,-0.002 0.88,0 1.61,0.939 2.2,2.817 0.01,0.026 0.01,0.052 0.02,0.078 0.59,1.866 0.89,4.187 0.89,6.966 0,0.105 0,0.209 0,0.313 0,0.052 0,0.105 0,0.157 0,2.779 -0.3,5.1 -0.89,6.966 -0.01,0.026 -0.01,0.052 -0.02,0.078 -0.59,1.878 -1.32,2.815 -2.2,2.815 -0.03,0.002 -0.06,0.002 -0.09,0 -0.02,0.002 -0.04,0.002 -0.05,0.002 -0.88,0 -1.61,-0.939 -2.2,-2.817 0,-0.026 -0.01,-0.052 -0.02,-0.078 -0.59,-1.866 -0.89,-4.187 -0.89,-6.966 0,-0.105 0,-0.209 0,-0.313 z m 0.84,-108.319 h 4.63 l -0.69,84.683 h -3.2 z m 4.68,216.794 h -4.63 l 0.69,-84.683 h 3.2 z"
   id="path1" />
                </g>
                <g
   transform="matrix(0,0.581573,-0.183049,0,410.581,-782.844)"
   id="g2">
                    <path
   d="m 2561.2,670.45 c 0,-0.052 0,-0.105 0,-0.157 0,-2.779 0.3,-5.1 0.89,-6.966 0.01,-0.026 0.02,-0.052 0.02,-0.078 0.59,-1.878 1.32,-2.815 2.2,-2.815 0.03,-0.002 0.06,-0.002 0.1,0 0.01,-0.002 0.03,-0.002 0.04,-0.002 0.88,0 1.61,0.939 2.2,2.817 0.01,0.026 0.01,0.052 0.02,0.078 0.59,1.866 0.89,4.187 0.89,6.966 0,0.105 0,0.209 0,0.313 0,0.052 0,0.105 0,0.157 0,2.779 -0.3,5.1 -0.89,6.966 -0.01,0.026 -0.01,0.052 -0.02,0.078 -0.59,1.878 -1.32,2.815 -2.2,2.815 -0.03,0.002 -0.06,0.002 -0.09,0 -0.02,0.002 -0.04,0.002 -0.05,0.002 -0.88,0 -1.61,-0.939 -2.2,-2.817 0,-0.026 -0.01,-0.052 -0.02,-0.078 -0.59,-1.866 -0.89,-4.187 -0.89,-6.966 0,-0.105 0,-0.209 0,-0.313 z m 0.84,-108.319 h 4.63 l -0.69,84.683 h -3.2 z m 4.68,216.794 h -4.63 l 0.69,-84.683 h 3.2 z"
   id="path2" />
                </g>
                <g
   transform="matrix(0,0.581573,-0.183049,0,410.581,-772.116)"
   id="g3">
                    <path
   d="m 2561.2,670.45 c 0,-0.052 0,-0.105 0,-0.157 0,-2.779 0.3,-5.1 0.89,-6.966 0.01,-0.026 0.02,-0.052 0.02,-0.078 0.59,-1.878 1.32,-2.815 2.2,-2.815 0.03,-0.002 0.06,-0.002 0.1,0 0.01,-0.002 0.03,-0.002 0.04,-0.002 0.88,0 1.61,0.939 2.2,2.817 0.01,0.026 0.01,0.052 0.02,0.078 0.59,1.866 0.89,4.187 0.89,6.966 0,0.105 0,0.209 0,0.313 0,0.052 0,0.105 0,0.157 0,2.779 -0.3,5.1 -0.89,6.966 -0.01,0.026 -0.01,0.052 -0.02,0.078 -0.59,1.878 -1.32,2.815 -2.2,2.815 -0.03,0.002 -0.06,0.002 -0.09,0 -0.02,0.002 -0.04,0.002 -0.05,0.002 -0.88,0 -1.61,-0.939 -2.2,-2.817 0,-0.026 -0.01,-0.052 -0.02,-0.078 -0.59,-1.866 -0.89,-4.187 -0.89,-6.966 0,-0.105 0,-0.209 0,-0.313 z m 0.84,-108.319 h 4.63 l -0.69,84.683 h -3.2 z m 4.68,216.794 h -4.63 l 0.69,-84.683 h 3.2 z"
   id="path3" />
                </g>
            </g>
        </g>
    </g>
</svg>
