<?xml version="1.0" encoding="UTF-8" standalone="no"?>
<!DOCTYPE svg PUBLIC "-//W3C//DTD SVG 1.1//EN" "http://www.w3.org/Graphics/SVG/1.1/DTD/svg11.dtd">
<svg width="100%" height="100%" viewBox="0 0 42 42" version="1.1" xmlns="http://www.w3.org/2000/svg" xmlns:xlink="http://www.w3.org/1999/xlink" xml:space="preserve" xmlns:serif="http://www.serif.com/" style="fill-rule:evenodd;clip-rule:evenodd;stroke-linejoin:round;stroke-miterlimit:2;">
    <g transform="matrix(1,0,0,1,0,-73)">
        <g id="Przycisk_Przeglądaj" transform="matrix(0.907362,0,0,0.907362,720.446,5.20916)">
            <rect x="-794" y="74.712" width="46.288" height="46.288" style="fill:none;"/>
            <clipPath id="_clip1">
                <rect x="-794" y="74.712" width="46.288" height="46.288"/>
            </clipPath>
            <g clip-path="url(#_clip1)">
                <g transform="matrix(1.1021,0,0,1.1021,-711.988,-7.64179)">
                    <g transform="matrix(0.253182,0,0,0.253182,-1047.85,-247.907)">
                        <path d="M3927.75,1333.5C3940.86,1333.5 3951.5,1344.14 3951.5,1357.25C3951.5,1370.36 3940.86,1381 3927.75,1381C3914.64,1381 3904,1370.36 3904,1357.25C3904,1344.14 3914.64,1333.5 3927.75,1333.5ZM3927.75,1341.5C3919.06,1341.5 3912,1348.56 3912,1357.25C3912,1365.94 3919.06,1373 3927.75,1373C3936.44,1373 3943.5,1365.94 3943.5,1357.25C3943.5,1348.56 3936.44,1341.5 3927.75,1341.5Z" style="fill:rgb(238,92,105);"/>
                    </g>
                    <g transform="matrix(0.759546,0,0,0.759546,-3036.72,-935.169)">
                        <path d="M3927.75,1336.17C3939.38,1336.17 3948.83,1345.62 3948.83,1357.25C3948.83,1368.89 3939.38,1378.33 3927.75,1378.33C3916.11,1378.33 3906.67,1368.89 3906.67,1357.25C3906.67,1345.62 3916.11,1336.17 3927.75,1336.17ZM3927.75,1338.84C3917.59,1338.84 3909.33,1347.09 3909.33,1357.25C3909.33,1367.41 3917.59,1375.67 3927.75,1375.67C3937.91,1375.67 3946.16,1367.41 3946.16,1357.25C3946.16,1347.09 3937.91,1338.84 3927.75,1338.84Z" style="fill:rgb(238,92,105);"/>
                    </g>
                    <g transform="matrix(0.506364,0,0,0.506364,-2042.28,-591.538)">
                        <path d="M3927.75,1335.5C3939.75,1335.5 3949.5,1345.25 3949.5,1357.25C3949.5,1369.26 3939.75,1379 3927.75,1379C3915.74,1379 3906,1369.26 3906,1357.25C3906,1345.25 3915.74,1335.5 3927.75,1335.5ZM3927.75,1339.5C3917.95,1339.5 3910,1347.46 3910,1357.25C3910,1367.05 3917.95,1375 3927.75,1375C3937.54,1375 3945.5,1367.05 3945.5,1357.25C3945.5,1347.46 3937.54,1339.5 3927.75,1339.5Z" style="fill:rgb(238,92,105);"/>
                    </g>
                    <g transform="matrix(1.01273,0,0,1.01273,-4031.15,-1278.8)">
                        <path d="M3927.75,1336.5C3939.2,1336.5 3948.5,1345.8 3948.5,1357.25C3948.5,1368.7 3939.2,1378 3927.75,1378C3916.3,1378 3907,1368.7 3907,1357.25C3907,1345.8 3916.3,1336.5 3927.75,1336.5ZM3927.75,1338.5C3917.4,1338.5 3909,1346.9 3909,1357.25C3909,1367.6 3917.4,1376 3927.75,1376C3938.1,1376 3946.5,1367.6 3946.5,1357.25C3946.5,1346.9 3938.1,1338.5 3927.75,1338.5Z" style="fill:rgb(238,92,105);"/>
                    </g>
                </g>
            </g>
        </g>
    </g>
</svg>
