<?xml version="1.0" encoding="UTF-8" standalone="no"?>
<!DOCTYPE svg PUBLIC "-//W3C//DTD SVG 1.1//EN" "http://www.w3.org/Graphics/SVG/1.1/DTD/svg11.dtd">
<svg width="100%" height="100%" viewBox="0 0 42 42" version="1.1" xmlns="http://www.w3.org/2000/svg" xmlns:xlink="http://www.w3.org/1999/xlink" xml:space="preserve" xmlns:serif="http://www.serif.com/" style="fill-rule:evenodd;clip-rule:evenodd;stroke-linejoin:round;stroke-miterlimit:2;">
    <g transform="matrix(1,0,0,1,0,-171)">
        <g id="Przycisk_Dodaj" transform="matrix(0.907362,0,0,0.907362,720.446,103.209)">
            <rect x="-794" y="74.712" width="46.288" height="46.288" style="fill:none;"/>
            <clipPath id="_clip1">
                <rect x="-794" y="74.712" width="46.288" height="46.288"/>
            </clipPath>
            <g clip-path="url(#_clip1)">
                <g id="Dodaj_Przycisk" transform="matrix(0.661681,0,0,0.208263,-2467.66,-41.79)">
                    <path d="M2560.34,670.479L2560.34,670.285C2560.34,666.735 2560.73,663.777 2561.48,661.393L2561.51,661.318C2562.26,658.924 2563.18,657.707 2564.3,657.702L2564.4,657.702L2564.46,657.701C2565.57,657.703 2566.51,658.923 2567.26,661.321L2567.28,661.396C2568.03,663.776 2568.42,666.73 2568.42,670.273L2568.42,670.577L2568.42,670.774C2568.42,674.323 2568.03,677.28 2567.28,679.663L2567.26,679.738C2566.51,682.132 2565.58,683.349 2564.46,683.354L2564.37,683.354L2564.3,683.355C2563.19,683.353 2562.26,682.133 2561.51,679.735L2561.48,679.66C2560.73,677.28 2560.35,674.326 2560.34,670.783L2560.34,670.479ZM2567.55,559.399L2566.82,649.545L2561.94,649.545L2561.16,559.399L2567.55,559.399ZM2599.36,680.61L2570.98,678.277L2570.98,662.784L2599.36,660.284L2599.36,680.61ZM2561.21,781.657L2561.94,691.511L2566.82,691.511L2567.6,781.657L2561.21,781.657ZM2529.4,660.446L2557.78,662.779L2557.78,678.272L2529.4,680.771L2529.4,660.446Z" style="fill:rgb(33,180,126);"/>
                </g>
            </g>
        </g>
    </g>
</svg>
