<?xml version="1.0" encoding="UTF-8" standalone="no"?>
<!DOCTYPE svg PUBLIC "-//W3C//DTD SVG 1.1//EN" "http://www.w3.org/Graphics/SVG/1.1/DTD/svg11.dtd">
<svg width="100%" height="100%" viewBox="0 0 20 234" version="1.1" xmlns="http://www.w3.org/2000/svg" xmlns:xlink="http://www.w3.org/1999/xlink" xml:space="preserve" xmlns:serif="http://www.serif.com/" style="fill-rule:evenodd;clip-rule:evenodd;stroke-linejoin:round;stroke-miterlimit:2;">
    <g transform="matrix(1,0,0,1,0,-393)">
        <g id="Zdjęcie_Ramka" transform="matrix(0.432077,0,0,5.0553,343.069,15.3082)">
            <rect x="-794" y="74.712" width="46.288" height="46.288" style="fill:none;"/>
            <clipPath id="_clip1">
                <rect x="-794" y="74.712" width="46.288" height="46.288"/>
            </clipPath>
            <g clip-path="url(#_clip1)">
                <g transform="matrix(1.22075,0,0,0.0338519,-3920.58,97.8405)">
                    <g id="Pasek">
                        <path d="M2562.04,-651.43L2566.67,-651.43L2565.98,646.814L2562.78,646.814L2562.04,-651.43ZM2564.36,680.624C2563.47,680.624 2562.72,679.685 2562.11,677.807C2561.51,675.928 2561.2,673.58 2561.2,670.763C2561.2,667.945 2561.51,665.623 2562.11,663.797C2562.72,661.971 2563.47,661.058 2564.36,661.058C2565.28,661.058 2566.04,661.971 2566.65,663.797C2567.25,665.623 2567.56,667.945 2567.56,670.763C2567.56,673.58 2567.25,675.928 2566.65,677.807C2566.04,679.685 2565.28,680.624 2564.36,680.624ZM2598.99,-680.647L2598.99,-666.373L2572.34,-668.499L2572.34,-678.369L2598.99,-680.647ZM2561.7,-673.51C2561.7,-676.243 2561.99,-678.546 2562.58,-680.419C2563.18,-682.292 2563.91,-683.229 2564.8,-683.229C2565.69,-683.229 2566.42,-682.292 2566.99,-680.419C2567.57,-678.546 2567.86,-676.243 2567.86,-673.51C2567.86,-670.676 2567.57,-668.322 2566.99,-666.449C2566.42,-664.576 2565.69,-663.64 2564.8,-663.64C2563.91,-663.64 2563.18,-664.576 2562.58,-666.449C2561.99,-668.322 2561.7,-670.676 2561.7,-673.51Z"/>
                    </g>
                </g>
            </g>
        </g>
    </g>
</svg>
