<?xml version="1.0" encoding="UTF-8" standalone="no"?>
<!DOCTYPE svg PUBLIC "-//W3C//DTD SVG 1.1//EN" "http://www.w3.org/Graphics/SVG/1.1/DTD/svg11.dtd">
<svg width="100%" height="100%" viewBox="0 0 33 33" version="1.1" xmlns="http://www.w3.org/2000/svg" xmlns:xlink="http://www.w3.org/1999/xlink" xml:space="preserve" xmlns:serif="http://www.serif.com/" style="fill-rule:evenodd;clip-rule:evenodd;stroke-linecap:round;stroke-miterlimit:1.5;">
    <g transform="matrix(1,0,0,1,0,-314)">
        <g id="Koło_Przycisk">
        </g>
        <g id="Stopka_Mail" transform="matrix(0.712928,0,0,0.712928,566.064,260.736)">
            <rect x="-794" y="74.712" width="46.288" height="46.288" style="fill:none;"/>
            <clipPath id="_clip1">
                <rect x="-794" y="74.712" width="46.288" height="46.288"/>
            </clipPath>
            <g clip-path="url(#_clip1)">
                <g transform="matrix(0.939394,0,0,0.939394,-57.2143,-1.784)">
                    <g opacity="0.65">
                        <g transform="matrix(1.71446,0,0,1.81947,-5143.46,-3196.15)">
                            <path d="M2560.94,1814.89C2560.61,1816.16 2560.04,1817.18 2559.22,1817.94C2558.4,1818.69 2557.45,1819.07 2556.37,1819.07C2555.6,1819.07 2554.91,1818.9 2554.3,1818.55C2553.69,1818.19 2553.21,1817.7 2552.86,1817.07C2552.51,1816.44 2552.33,1815.72 2552.33,1814.89C2552.33,1814.08 2552.5,1813.36 2552.85,1812.73C2553.19,1812.1 2553.67,1811.61 2554.28,1811.26C2554.89,1810.91 2555.59,1810.73 2556.37,1810.73C2557.13,1810.73 2557.82,1810.91 2558.43,1811.27C2559.05,1811.63 2559.57,1812.12 2559.99,1812.75C2560.42,1813.38 2560.74,1814.09 2560.94,1814.89ZM2553.43,1814.89C2553.43,1815.85 2553.72,1816.63 2554.3,1817.24C2554.88,1817.84 2555.61,1818.14 2556.49,1818.14C2557.37,1818.14 2558.15,1817.84 2558.83,1817.24C2559.5,1816.63 2560.03,1815.85 2560.41,1814.89C2560.03,1813.93 2559.5,1813.15 2558.83,1812.56C2558.15,1811.96 2557.37,1811.66 2556.49,1811.66C2555.91,1811.66 2555.39,1811.8 2554.92,1812.07C2554.45,1812.34 2554.09,1812.72 2553.82,1813.21C2553.56,1813.69 2553.43,1814.26 2553.43,1814.89ZM2566.05,1813.82C2566.05,1814.84 2565.86,1815.74 2565.47,1816.5C2565.07,1817.25 2564.52,1817.84 2563.81,1818.26C2563.1,1818.68 2562.27,1818.89 2561.32,1818.89L2560.88,1818.89L2560.23,1815.85L2560.53,1814.89L2560.19,1813.96L2560.67,1810.91L2561.73,1810.91L2561.18,1814.89L2561.91,1818.69L2561.39,1818.18C2562.12,1818.18 2562.76,1818 2563.3,1817.64C2563.85,1817.28 2564.28,1816.78 2564.58,1816.12C2564.89,1815.46 2565.04,1814.7 2565.04,1813.84C2565.04,1812.54 2564.71,1811.4 2564.06,1810.42C2563.41,1809.45 2562.51,1808.69 2561.35,1808.15C2560.2,1807.61 2558.85,1807.34 2557.3,1807.34C2555.64,1807.34 2554.18,1807.66 2552.91,1808.31C2551.64,1808.96 2550.66,1809.88 2549.96,1811.06C2549.25,1812.23 2548.9,1813.61 2548.9,1815.18C2548.9,1816.64 2549.25,1817.92 2549.95,1819.02C2550.64,1820.12 2551.62,1820.99 2552.88,1821.6C2554.14,1822.22 2555.59,1822.52 2557.24,1822.52C2557.97,1822.52 2558.72,1822.46 2559.47,1822.34C2560.22,1822.22 2560.94,1822.04 2561.64,1821.81C2562.34,1821.58 2562.95,1821.3 2563.5,1820.96L2563.5,1822C2562.91,1822.29 2562.27,1822.56 2561.57,1822.78C2560.86,1823 2560.14,1823.17 2559.39,1823.29C2558.65,1823.4 2557.92,1823.46 2557.2,1823.46C2555.35,1823.46 2553.72,1823.11 2552.31,1822.42C2550.9,1821.73 2549.81,1820.77 2549.02,1819.52C2548.24,1818.28 2547.84,1816.83 2547.84,1815.18C2547.84,1813.86 2548.07,1812.67 2548.53,1811.59C2548.98,1810.52 2549.62,1809.59 2550.46,1808.82C2551.3,1808.05 2552.3,1807.45 2553.46,1807.04C2554.62,1806.62 2555.9,1806.41 2557.3,1806.41C2559.05,1806.41 2560.58,1806.71 2561.89,1807.33C2563.2,1807.94 2564.23,1808.81 2564.96,1809.92C2565.69,1811.03 2566.05,1812.33 2566.05,1813.82Z" style="fill-rule:nonzero;"/>
                        </g>
                        <g transform="matrix(1.17096,0,0,1.17096,-5358.93,-1483.22)">
                            <circle cx="3927.75" cy="1357.25" r="19.749" style="fill:none;stroke:black;stroke-width:1.48px;"/>
                        </g>
                    </g>
                </g>
            </g>
        </g>
    </g>
</svg>
