<?xml version="1.0" encoding="UTF-8" standalone="no"?>
<!DOCTYPE svg PUBLIC "-//W3C//DTD SVG 1.1//EN" "http://www.w3.org/Graphics/SVG/1.1/DTD/svg11.dtd">
<svg width="100%" height="100%" viewBox="0 0 4 42" version="1.1" xmlns="http://www.w3.org/2000/svg" xmlns:xlink="http://www.w3.org/1999/xlink" xml:space="preserve" xmlns:serif="http://www.serif.com/" style="fill-rule:evenodd;clip-rule:evenodd;stroke-linejoin:round;stroke-miterlimit:2;">
    <g transform="matrix(1,0,0,1,0,-269)">
        <g id="Stopka_Separator" transform="matrix(0.0864155,0,0,0.907362,68.6139,201.209)">
            <rect x="-794" y="74.712" width="46.288" height="46.288" style="fill:none;"/>
            <clipPath id="_clip1">
                <rect x="-794" y="74.712" width="46.288" height="46.288"/>
            </clipPath>
            <g clip-path="url(#_clip1)">
                <g transform="matrix(7.12272,0,0,0.213511,-19036.2,-45.309)">
                    <path d="M2561.2,670.45C2561.2,670.398 2561.2,670.345 2561.2,670.293C2561.2,667.514 2561.5,665.193 2562.09,663.327C2562.1,663.301 2562.11,663.275 2562.11,663.249C2562.7,661.371 2563.43,660.434 2564.31,660.434C2564.34,660.432 2564.37,660.432 2564.41,660.434C2564.42,660.432 2564.44,660.432 2564.45,660.432C2565.33,660.432 2566.06,661.371 2566.65,663.249C2566.66,663.275 2566.66,663.301 2566.67,663.327C2567.26,665.193 2567.56,667.514 2567.56,670.293C2567.56,670.398 2567.56,670.502 2567.56,670.606C2567.56,670.658 2567.56,670.711 2567.56,670.763C2567.56,673.542 2567.26,675.863 2566.67,677.729C2566.66,677.755 2566.66,677.781 2566.65,677.807C2566.06,679.685 2565.33,680.622 2564.45,680.622C2564.42,680.624 2564.39,680.624 2564.36,680.622C2564.34,680.624 2564.32,680.624 2564.31,680.624C2563.43,680.624 2562.7,679.685 2562.11,677.807C2562.11,677.781 2562.1,677.755 2562.09,677.729C2561.5,675.863 2561.2,673.542 2561.2,670.763C2561.2,670.658 2561.2,670.554 2561.2,670.45ZM2562.04,562.131L2566.67,562.131L2565.98,646.814L2562.78,646.814L2562.04,562.131ZM2566.72,778.925L2562.09,778.925L2562.78,694.242L2565.98,694.242L2566.72,778.925Z" style="fill-opacity:0.65;"/>
                </g>
            </g>
        </g>
    </g>
</svg>
