<?xml version="1.0" encoding="UTF-8" standalone="no"?>
<!DOCTYPE svg PUBLIC "-//W3C//DTD SVG 1.1//EN" "http://www.w3.org/Graphics/SVG/1.1/DTD/svg11.dtd">
<svg width="100%" height="100%" viewBox="0 0 42 42" version="1.1" xmlns="http://www.w3.org/2000/svg" xmlns:xlink="http://www.w3.org/1999/xlink" xml:space="preserve" xmlns:serif="http://www.serif.com/" style="fill-rule:evenodd;clip-rule:evenodd;stroke-linejoin:round;stroke-miterlimit:2;">
    <g transform="matrix(1,0,0,1,0,-220)">
        <g id="Logo_Gwiazdka" transform="matrix(0.907362,0,0,0.907362,720.446,152.209)">
            <rect x="-794" y="74.712" width="46.288" height="46.288" style="fill:none;"/>
            <clipPath id="_clip1">
                <rect x="-794" y="74.712" width="46.288" height="46.288"/>
            </clipPath>
            <g clip-path="url(#_clip1)">
                <g transform="matrix(0.661681,0,2.20874e-31,0.208263,-2467.66,-41.79)">
                    <path d="M2560.34,670.479L2560.34,670.283C2560.34,668.752 2560.42,667.332 2560.56,666.021C2560.74,664.074 2561.08,662.295 2561.57,660.723L2561.64,660.499L2561.69,660.359C2562.48,657.852 2563.41,656.623 2564.47,656.633L2564.5,656.633C2565.57,656.624 2566.49,657.852 2567.28,660.354L2567.35,660.569L2567.39,660.707C2568.18,663.218 2568.57,666.172 2568.57,669.553L2568.57,669.657C2568.57,671.456 2568.46,673.132 2568.24,674.656C2568.06,676.539 2567.74,678.211 2567.28,679.665L2567.26,679.738C2566.51,682.132 2565.58,683.349 2564.46,683.354L2564.37,683.354L2564.3,683.355C2563.19,683.353 2562.26,682.133 2561.51,679.735L2561.48,679.66C2560.73,677.28 2560.35,674.326 2560.34,670.783L2560.34,670.479ZM2567.55,559.399L2566.82,649.545L2561.94,649.545L2561.16,559.399L2567.55,559.399ZM2591.46,598.152L2570.88,660.245L2567.43,649.29L2586.94,583.78L2591.46,598.152ZM2599.36,680.61L2570.98,678.277L2570.98,662.784L2599.36,660.284L2599.36,680.61ZM2586.97,755.312L2567.43,689.92L2570.88,678.964L2591.5,740.94L2586.97,755.312ZM2561.21,781.657L2561.94,691.511L2566.82,691.511L2567.6,781.657L2561.21,781.657ZM2537.51,741.054L2558.09,678.961L2561.54,689.916L2542.03,755.426L2537.51,741.054ZM2529.4,660.446L2557.78,662.779L2557.78,678.272L2529.4,680.771L2529.4,660.446ZM2542,583.894L2561.54,649.287L2558.09,660.242L2537.47,598.267L2542,583.894Z" style="fill:rgb(0, 0, 0);"/>
                </g>
            </g>
        </g>
    </g>
</svg>
